<mxfile host="app.diagrams.net" modified="2023-11-01T05:06:42.016Z" agent="Mozilla/5.0 (Windows NT 10.0; Win64; x64) AppleWebKit/537.36 (KHTML, like Gecko) Chrome/118.0.0.0 Safari/537.36" version="22.0.8" etag="w0k5HTwmDU6cyhmERBD7" type="github">
  <diagram name="第 1 页" id="t2QXyQ-QbZ9Z8d4Gb-RY">
    <mxGraphModel>
      <root>
        <mxCell id="0" />
        <mxCell id="1" parent="0" />
      </root>
    </mxGraphModel>
  </diagram>
</mxfile>
